<svg width="60" height="60" viewBox="0 0 60 60" fill="none" xmlns="http://www.w3.org/2000/svg">
<path d="M58.8862 26.5661C57.8807 25.2625 56.3612 24.5147 54.7171 24.5147H49.2904C49.3128 23.9317 49.324 23.3457 49.324 22.7573C49.324 21.7868 48.5373 21 47.5667 21H1.75741C0.786863 20.9999 6.64725e-05 21.7868 6.64725e-05 22.7573C6.64725e-05 33.2079 3.55354 42.8666 9.49507 49.1182H1.75741C1.14827 49.1182 0.582606 49.4336 0.262449 49.9516C-0.057707 50.4697 -0.0867694 51.1167 0.185457 51.6614C2.65132 56.593 7.73397 59.7796 13.1344 59.7796H36.1925C41.5911 59.7796 46.6726 56.593 49.1384 51.6614C49.4108 51.1166 49.3817 50.4697 49.0614 49.9516C48.7413 49.4336 48.1756 49.1182 47.5665 49.1182H39.8288C40.8853 48.0067 41.8662 46.7876 42.7652 45.4753C46.5111 45.0443 50.1799 43.5238 53.1821 41.1423C56.4614 38.541 58.8189 35.0092 59.8205 31.1975C60.2466 29.5765 59.906 27.8884 58.8862 26.5661ZM33.5076 34.0295V38.5738H29.9928V34.0295L31.7501 32.2722L33.5076 34.0295ZM44.2494 52.6095C42.1845 54.8763 39.2539 56.2648 36.1927 56.2648H13.1346C10.0719 56.2648 7.14018 54.8763 5.07499 52.6095H44.2494ZM34.5794 49.1181H14.7447C8.17342 44.1634 3.97788 34.9021 3.55085 24.5147H29.9928V29.059L26.9928 32.059C26.6633 32.3885 26.478 32.8355 26.478 33.3016V40.3311C26.478 41.3017 27.2648 42.0885 28.2353 42.0885H35.2648C36.2354 42.0885 37.0222 41.3017 37.0222 40.3311V33.3016C37.0222 32.8356 36.8369 32.3886 36.5074 32.059L33.5074 29.059V24.4913H45.773C45.3932 33.7354 41.8393 43.6444 34.5794 49.1181ZM56.4213 30.3041C55.045 35.5417 50.5542 39.8265 45.1374 41.42C47.1166 37.4333 48.4528 32.8737 49.0183 28.0295H54.7169C55.4643 28.0295 55.9061 28.4575 56.1028 28.7126C56.4521 29.1653 56.5681 29.7454 56.4213 30.3041Z" fill="#5AB963"/>
<path d="M37.2574 14.5145C37.0098 14.2928 36.085 13.2687 36.085 12.309C36.085 11.3886 36.9592 10.3777 37.2573 10.1036C38.7523 8.76493 39.5756 7.05164 39.5756 5.27953C39.5756 3.50742 38.7524 1.79414 37.2573 0.455511C36.5344 -0.19195 35.4233 -0.130661 34.7758 0.592386C34.1283 1.31555 34.1896 2.42649 34.9126 3.07395C35.6637 3.7466 36.0608 4.50926 36.0608 5.27942C36.0608 6.04957 35.6639 6.81246 34.9127 7.485C34.6729 7.69981 32.5703 9.65907 32.5703 12.309C32.5703 14.959 34.673 16.9182 34.9127 17.133C35.6361 17.7807 36.7471 17.719 37.3943 16.9961C38.0417 16.273 37.9805 15.162 37.2574 14.5145ZM26.7131 14.5145C26.4655 14.2928 25.5407 13.2687 25.5407 12.309C25.5407 11.3886 26.4149 10.3777 26.713 10.1036C28.208 8.76493 29.0313 7.05164 29.0313 5.27953C29.0313 3.50742 28.2081 1.79414 26.713 0.455511C25.99 -0.19195 24.879 -0.130661 24.2315 0.592386C23.584 1.31555 23.6453 2.42649 24.3683 3.07395C25.1194 3.7466 25.5165 4.50926 25.5165 5.27942C25.5165 6.04957 25.1196 6.81246 24.3684 7.485C24.1287 7.69981 22.026 9.65907 22.026 12.309C22.026 14.959 24.1287 16.9182 24.3684 17.133C25.0918 17.7807 26.2028 17.719 26.85 16.9961C27.4974 16.273 27.4361 15.162 26.7131 14.5145ZM16.1688 14.5145C15.9212 14.2928 14.9964 13.2687 14.9964 12.309C14.9964 11.3886 15.8706 10.3777 16.1687 10.1036C17.6637 8.76493 18.487 7.05164 18.487 5.27953C18.487 3.50742 17.6638 1.79414 16.1687 0.455511C15.4457 -0.19195 14.3346 -0.130661 13.6872 0.592386C13.0397 1.31555 13.101 2.42649 13.824 3.07395C14.5751 3.7466 14.9722 4.50926 14.9722 5.27942C14.9722 6.04957 14.5753 6.81246 13.8242 7.485C13.5843 7.69981 11.4817 9.65907 11.4817 12.309C11.4817 14.959 13.5844 16.9182 13.8242 17.133C14.5474 17.7807 15.6585 17.719 16.3057 16.9961C16.9531 16.273 16.8918 15.162 16.1688 14.5145Z" fill="black"/>
</svg>
